<?xml version="1.0" ?><!-- Uploaded to: SVG Repo, www.svgrepo.com, Generator: SVG Repo Mixer Tools -->
<svg width="800px" height="800px" viewBox="0 0 128 128" data-name="Layer 2" id="Layer_2" xmlns="http://www.w3.org/2000/svg"><defs><style>.cls-1{fill:#8b7847;}.cls-2{fill:#382804;}.cls-3{fill:#553f07;}.cls-4{fill:#616834;}.cls-5{fill:#909650;}.cls-6{fill:#ea563a;}</style></defs><title/><path class="cls-1" d="M13.3,100.83,28.85,54.74A9.94,9.94,0,0,1,38.28,48H88.45a10,10,0,0,1,9.36,6.55l16.84,46.18a5.61,5.61,0,0,1-5.27,7.54H18.62A5.61,5.61,0,0,1,13.3,100.83Z"/><path class="cls-2" d="M22.32,104.22a1,1,0,0,1-.24,0,.79.79,0,0,1-.5-1l1.15-3.49a.78.78,0,0,1,1.48.49l-1.15,3.49A.77.77,0,0,1,22.32,104.22Z"/><path class="cls-2" d="M24.28,98.29a.73.73,0,0,1-.25,0,.77.77,0,0,1-.49-1L39.25,49.58a.77.77,0,0,1,1.47.49L25,97.76A.77.77,0,0,1,24.28,98.29Z"/><path class="cls-2" d="M104.15,104.22a.77.77,0,0,1-.74-.53l-2.7-8.19a.78.78,0,1,1,1.48-.48l2.7,8.18a.79.79,0,0,1-.5,1A1,1,0,0,1,104.15,104.22Z"/><path class="cls-2" d="M99.63,89.81a.77.77,0,0,1-.73-.53L85.75,50.07a.77.77,0,0,1,.48-1,.78.78,0,0,1,1,.49l13.15,39.2a.79.79,0,0,1-.49,1A1.09,1.09,0,0,1,99.63,89.81Z"/><path class="cls-2" d="M34.14,96.32a1,1,0,0,1-.24,0,.78.78,0,0,1-.5-1L47.53,50.65a.78.78,0,1,1,1.48.47L34.88,95.78A.78.78,0,0,1,34.14,96.32Z"/><path class="cls-2" d="M92.73,104.22a.77.77,0,0,1-.74-.54l-1.75-5.51a.78.78,0,1,1,1.48-.47l1.75,5.51a.78.78,0,0,1-.51,1A.85.85,0,0,1,92.73,104.22Z"/><path class="cls-2" d="M90.23,96.32a.77.77,0,0,1-.74-.54L75.35,51.12a.78.78,0,1,1,1.48-.47L91,95.31a.78.78,0,0,1-.51,1A.91.91,0,0,1,90.23,96.32Z"/><path class="cls-2" d="M46.55,104.22h-.16a.78.78,0,0,1-.6-.92l.83-3.88a.78.78,0,0,1,.92-.59.78.78,0,0,1,.6.92l-.83,3.87A.77.77,0,0,1,46.55,104.22Z"/><path class="cls-2" d="M48,97.29l-.17,0a.77.77,0,0,1-.59-.92l9.78-45.63a.78.78,0,1,1,1.52.33L48.8,96.67A.78.78,0,0,1,48,97.29Z"/><path class="cls-2" d="M78,104.22a.77.77,0,0,1-.76-.61l-1.07-5a.77.77,0,0,1,.59-.92.79.79,0,0,1,.93.6l1.07,5a.78.78,0,0,1-.6.92Z"/><path class="cls-2" d="M76.53,97.29a.78.78,0,0,1-.76-.62L66,51.05a.79.79,0,0,1,.6-.93.78.78,0,0,1,.92.6l9.78,45.63a.77.77,0,0,1-.59.92Z"/><path class="cls-2" d="M62.62,94.07a.78.78,0,0,1-.78-.78V56.21a.78.78,0,1,1,1.55,0V93.29A.78.78,0,0,1,62.62,94.07Z"/><path class="cls-3" d="M97.87,54.67A10.19,10.19,0,0,0,88.29,48H38.45a10.2,10.2,0,0,0-9.66,6.93L22.32,74.09l.88.93a14,14,0,0,0,20.39,0h0a14,14,0,0,1,20.55.16c5.48,6,14,6.51,19.6.54l.62-.67a14,14,0,0,1,20.43,0l.81.86Z"/><path class="cls-2" d="M62.62,101.1a.77.77,0,0,1-.78-.77V95.55a.78.78,0,1,1,1.55,0v4.78A.77.77,0,0,1,62.62,101.1Z"/><path class="cls-2" d="M32.13,102.83a.76.76,0,0,1-.21,0,.78.78,0,0,1-.53-1L32.7,97.3a.77.77,0,0,1,1-.53.78.78,0,0,1,.53,1l-1.32,4.54A.78.78,0,0,1,32.13,102.83Z"/><path class="cls-4" d="M65.32,45s-7.79,5-9,8.92c0,0-5.14-3.08-9,.1,0,0-5.06-5.21-10.19-4.92,0,0,6.13-1.21,10.42-8.83,0,0,6.67,3.72,9.19-.45A15.79,15.79,0,0,0,65.32,45Z"/><path class="cls-4" d="M65.49,48.17S60.6,40.3,56.71,39c0,0,3.16-5.09,0-9,0,0,5.29-5,5.08-10.11,0,0,1.11,6.15,8.67,10.55,0,0-3.83,6.61.31,9.2A15.81,15.81,0,0,0,65.49,48.17Z"/><path class="cls-4" d="M72.34,45.82s2-9,.07-12.68c0,0,5.81-1.45,6.32-6.46,0,0,7.26.1,10.69-3.73,0,0-3.49,5.19-1.12,13.62,0,0-7.35,2.08-6.18,6.81A15.85,15.85,0,0,0,72.34,45.82Z"/><path class="cls-4" d="M70,43.73s9,2.11,12.68.27c0,0,1.36,5.83,6.36,6.42,0,0-.21,7.26,3.57,10.75,0,0-5.14-3.57-13.6-1.34,0,0-2-7.38-6.72-6.29A15.77,15.77,0,0,0,70,43.73Z"/><polygon class="cls-5" points="61.06 19.95 64.22 44.42 36.96 48.37 37.18 49.91 64.42 45.96 64.72 48.27 66.26 48.07 62.6 19.76 61.06 19.95"/><polygon class="cls-5" points="73.56 45.49 90.04 23.41 88.8 22.48 72.33 44.54 70.48 43.12 69.53 44.35 92.14 61.78 93.09 60.55 73.56 45.49"/><circle class="cls-6" cx="63.93" cy="46.26" r="4.6"/><circle class="cls-6" cx="72.44" cy="45.4" r="4.6"/><circle class="cls-6" cx="68.62" cy="52.18" r="4.6"/></svg>