<?xml version="1.0" encoding="iso-8859-1"?>
<!-- Uploaded to: SVG Repo, www.svgrepo.com, Generator: SVG Repo Mixer Tools -->
<svg height="800px" width="800px" version="1.1" id="Layer_1" xmlns="http://www.w3.org/2000/svg" xmlns:xlink="http://www.w3.org/1999/xlink" 
	 viewBox="0 0 512 512" xml:space="preserve">
<path style="fill:#FFD102;" d="M210.989,60.801c0-23.962,18.52-49.222,45.011-60.801c26.491,11.578,45.011,36.839,45.011,60.801
	c0,24.858-20.153,45.011-45.011,45.011S210.989,85.659,210.989,60.801L210.989,60.801z"/>
<path style="fill:#459492;" d="M256,85.869c-4.661,0-8.44,3.779-8.44,8.44v45.011h16.879V94.308
	C264.44,89.647,260.661,85.869,256,85.869z"/>
<path style="fill:#9AD6D4;" d="M267.253,128.066h-22.505c-6.189,0-11.253,5.064-11.253,11.253v96.426h45.011v-96.426
	C278.505,133.13,273.442,128.066,267.253,128.066z"/>
<path style="fill:#C8815C;" d="M388.393,336.314L98.149,347.567c-0.001,15.627-8.496,15.628-8.496,31.258
	c0,15.63,8.496,15.63,8.496,31.261c0,0.006,290.244,11.258,290.244,11.258V336.314z"/>
<g>
	<path style="fill:#AD4A38;" d="M388.393,273.789H98.149v11.253c0,15.63-8.496,15.63-8.496,31.26c0,15.63,8.496,15.63,8.496,31.26
		c0,0.004,290.244,0.004,290.244,0.004V273.789z"/>
	<path style="fill:#AD4A38;" d="M98.149,410.091c-0.002,15.627-8.496,15.629-8.496,31.259c0,15.632,8.496,15.632,8.496,31.265
		v11.253h290.244V410.09H98.149V410.091z"/>
</g>
<path style="fill:#991D06;" d="M413.851,412.066V254.768c0-16.72-13.555-30.276-30.274-30.276H98.149
	c-16.72,0-30.274,13.555-30.274,30.276s13.555,30.276,30.274,30.276c34.96,0,244.73,0,279.694,0v187.572h36.009
	c16.72,0,30.274-13.555,30.274-30.276C444.126,425.619,430.572,412.066,413.851,412.066z"/>
<path style="fill:#9AD6D4;" d="M11.253,472.615l6.615,23.155C20.419,504.697,30.101,512,39.385,512h433.231
	c9.284,0,18.965-7.303,21.516-16.23l6.616-23.155H11.253z"/>
<path style="fill:#57BAB7;" d="M503.56,481.055H8.44c-4.661,0-8.44-3.779-8.44-8.44s3.779-8.44,8.44-8.44H503.56
	c4.661,0,8.44,3.779,8.44,8.44S508.221,481.055,503.56,481.055z"/>
</svg>